<svg id="Layer_1" data-name="Layer 1" xmlns="http://www.w3.org/2000/svg" viewBox="0 0 512 512"><title>globe-glyph</title><path id="_26" data-name="26" d="M175.46,417.58a190.48,190.48,0,0,1-10.73-21.46l-.53-1.32q14.9-4,30.54-8.81c6.45,14.64,13.78,26.05,21.09,33.1,5.19,5.13,9.93,8,14.2,9.27,2.06.09,4,.16,5.94.16s3.89-.07,5.95-.16c4.26-1.29,9-4.14,14.15-9.27,7.58-7.45,15.45-19.62,22.1-35.32a212.08,212.08,0,0,0,7.45-20.43c-7.2-1-14.33-1.76-21.36-2.22,10.27-4.14,20.64-8.46,31.09-13.05q15.16-6.74,29.63-13.72c-.29,1.55-.52,3.17-.83,4.72a295,295,0,0,1,51.1,18.6,171.51,171.51,0,0,0,29.6-66.75q18.48-11.36,34.64-22.73A202.8,202.8,0,0,1,398,379.94q-5,6.58-10.62,12.82a203.62,203.62,0,0,1-141.22,67c-4.29.28-16.15.11-20.35,0a203.26,203.26,0,0,1-125.63-51.56c13-1.83,26.84-4.46,41.5-7.82A171.52,171.52,0,0,0,175.46,417.58Zm177.91-35.18a259.3,259.3,0,0,0-36.73-12.72c-5.45,18.14-12.25,34.3-20.38,48A172.49,172.49,0,0,0,353.37,382.41Zm21.9-228a296.23,296.23,0,0,1-51.4,18.71,417.75,417.75,0,0,1,7.68,67.19h57.94c-16.87,10.32-36,20.91-56.82,31.51H331.6c0,.18,0,.37,0,.55q-15.55,7.87-32.35,15.75c.4-5.34.7-10.78.9-16.3H171.8a379.72,379.72,0,0,0,7.35,63.4c4.27-.83,8.66-1.55,13.13-2.22C138.73,352.49,93,363.87,62.88,363.93a203.12,203.12,0,0,1-30.74-99.69c-.07-2.62-.19-5.36-.19-8.17s.12-5.58.19-8.21a203.11,203.11,0,0,1,42.77-117c3.44-4.39,7-8.7,10.86-12.86a204,204,0,0,1,301.59,1.29q5.58,6.24,10.61,12.82A203.29,203.29,0,0,1,434.43,209c-8.12,6.66-17.51,13.55-28.07,20.56A171.36,171.36,0,0,0,375.26,154.4ZM98.15,359.7a388.5,388.5,0,0,1,50.22-17.4,417.3,417.3,0,0,1-8-70.48H64.21A171.13,171.13,0,0,0,98.15,359.7ZM64.21,240.3H140.4a418.51,418.51,0,0,1,8.31-70.41,387.67,387.67,0,0,1-50.57-17.51A171.27,171.27,0,0,0,64.21,240.3Zm56.63-112.67c4,1.5,8.2,3.08,12.75,4.65,7,2.41,14.77,4.79,23.1,7.06,5.5-17.16,12.22-32.45,20.18-45.33A172,172,0,0,0,120.84,127.63Zm135.26-33C248.32,87,241.85,84.42,236,84.38S223.59,87,215.83,94.62c-7.57,7.47-15.44,19.61-22.08,35.32q-3.28,7.66-6.16,16.4a322.49,322.49,0,0,0,57.24,5.3,285.44,285.44,0,0,0,40.26-2.82C277.17,123.93,266.63,104.78,256.1,94.62Zm-11.2,88.55h-.07v-7.89l0,7.89a358.3,358.3,0,0,1-65.36-6.24,377.93,377.93,0,0,0-7.6,63.36H300.07A379.5,379.5,0,0,0,293,179.52,316.19,316.19,0,0,1,244.91,183.17Zm50.26-89.12a182.11,182.11,0,0,1,12,23.53,254,254,0,0,1,9,25,261.33,261.33,0,0,0,37.2-12.86A172.55,172.55,0,0,0,295.17,94.05Zm215.19,61.62c-8.59-19.43-50.53-21.65-109.77-9.5.19.3.38.62.55.92,42.49-6.39,69.45-1.92,76.15,13.26,14.2,32.13-78.07,99.39-205.47,155.71s-236.73,78.14-251,46c-5.49-12.45,2.44-29.51,24.69-50.68a3.73,3.73,0,0,0-.11-.49c-33.87,28.43-51,53.57-43.85,69.67C17.27,416,147.36,401.2,287.87,339.09S526,191.08,510.36,155.67Z" fill="#231f20"/></svg>